<svg xmlns="http://www.w3.org/2000/svg" xmlns:xlink="http://www.w3.org/1999/xlink" width="500" zoomAndPan="magnify" viewBox="0 0 375 374.999991" height="500" preserveAspectRatio="xMidYMid meet" version="1.0"><defs><clipPath id="id1"><path d="M 96.601562 42.066406 L 278.101562 42.066406 L 278.101562 333.0625 L 96.601562 333.0625 Z M 96.601562 42.066406 " clip-rule="nonzero"/></clipPath></defs><g clip-path="url(#id1)"><path fill="rgb(0%, 0%, 0%)" d="M 144.664062 332.679688 C 147.503906 334.191406 150.496094 330.917969 148.757812 328.210938 C 139.332031 313.511719 130.40625 288.769531 144.625 256.910156 C 168.34375 203.78125 182.777344 176.265625 182.777344 176.265625 C 182.777344 176.265625 190.453125 208.375 211.257812 236.929688 C 231.285156 264.40625 242.25 298.96875 224.578125 327.761719 C 222.917969 330.464844 225.84375 333.652344 228.660156 332.203125 C 250.535156 320.992188 275.070312 298.5 277.839844 253.742188 C 278.859375 240.066406 277.328125 220.917969 269.671875 196.753906 C 259.832031 166.128906 247.734375 151.839844 240.734375 145.703125 C 238.636719 143.867188 235.382812 145.496094 235.554688 148.277344 C 237.59375 181.320312 225.1875 189.707031 218.128906 170.808594 C 215.308594 163.261719 213.664062 150.207031 213.664062 134.308594 C 213.664062 107.839844 206 80.59375 189.105469 58.453125 C 184.710938 52.695312 179.570312 47.316406 173.671875 42.726562 C 171.539062 41.066406 168.441406 42.734375 168.636719 45.4375 C 169.933594 63.378906 168.757812 114.804688 123.738281 176.238281 C 82.917969 233.226562 98.734375 276.992188 104.347656 288.847656 C 115.078125 311.554688 130.046875 324.890625 144.664062 332.679688 Z M 144.664062 332.679688 " fill-opacity="1" fill-rule="nonzero"/></g></svg>