<svg xmlns="http://www.w3.org/2000/svg" xmlns:xlink="http://www.w3.org/1999/xlink" width="500" zoomAndPan="magnify" viewBox="0 0 375 374.999991" height="500" preserveAspectRatio="xMidYMid meet" version="1.0"><defs><clipPath id="id1"><path d="M 33.472656 33.472656 L 341.53125 33.472656 L 341.53125 341.53125 L 33.472656 341.53125 Z M 33.472656 33.472656 " clip-rule="nonzero"/></clipPath><clipPath id="id2"><path d="M 106.625 58.101562 L 268.378906 58.101562 L 268.378906 317.085938 L 106.625 317.085938 Z M 106.625 58.101562 " clip-rule="nonzero"/></clipPath></defs><g clip-path="url(#id1)"><path fill="rgb(89.408875%, 69.40918%, 64.709473%)" d="M 341.53125 187.5 C 341.53125 190.023438 341.46875 192.542969 341.34375 195.058594 C 341.222656 197.578125 341.035156 200.089844 340.789062 202.597656 C 340.542969 205.105469 340.234375 207.609375 339.863281 210.101562 C 339.492188 212.59375 339.0625 215.078125 338.570312 217.550781 C 338.078125 220.023438 337.527344 222.480469 336.914062 224.925781 C 336.300781 227.371094 335.628906 229.800781 334.898438 232.214844 C 334.164062 234.625 333.375 237.019531 332.527344 239.390625 C 331.675781 241.765625 330.769531 244.117188 329.804688 246.445312 C 328.839844 248.773438 327.820312 251.078125 326.742188 253.355469 C 325.664062 255.636719 324.53125 257.886719 323.34375 260.109375 C 322.152344 262.332031 320.910156 264.527344 319.617188 266.6875 C 318.320312 268.851562 316.972656 270.980469 315.570312 273.074219 C 314.171875 275.171875 312.71875 277.230469 311.21875 279.257812 C 309.714844 281.28125 308.167969 283.265625 306.566406 285.214844 C 304.96875 287.164062 303.320312 289.074219 301.628906 290.941406 C 299.9375 292.808594 298.199219 294.632812 296.414062 296.414062 C 294.632812 298.199219 292.808594 299.9375 290.941406 301.628906 C 289.074219 303.320312 287.164062 304.96875 285.214844 306.566406 C 283.265625 308.167969 281.28125 309.714844 279.257812 311.21875 C 277.230469 312.71875 275.171875 314.171875 273.074219 315.570312 C 270.980469 316.972656 268.851562 318.320312 266.6875 319.617188 C 264.527344 320.910156 262.332031 322.152344 260.109375 323.34375 C 257.886719 324.53125 255.636719 325.664062 253.355469 326.742188 C 251.078125 327.820312 248.773438 328.839844 246.445312 329.804688 C 244.117188 330.769531 241.765625 331.675781 239.390625 332.527344 C 237.019531 333.375 234.625 334.164062 232.214844 334.898438 C 229.800781 335.628906 227.371094 336.300781 224.925781 336.914062 C 222.480469 337.527344 220.023438 338.078125 217.550781 338.570312 C 215.078125 339.0625 212.59375 339.492188 210.101562 339.863281 C 207.609375 340.234375 205.105469 340.542969 202.597656 340.789062 C 200.089844 341.035156 197.578125 341.222656 195.058594 341.34375 C 192.542969 341.46875 190.023438 341.53125 187.5 341.53125 C 184.980469 341.53125 182.460938 341.46875 179.941406 341.34375 C 177.425781 341.222656 174.914062 341.035156 172.402344 340.789062 C 169.894531 340.542969 167.394531 340.234375 164.898438 339.863281 C 162.40625 339.492188 159.921875 339.0625 157.453125 338.570312 C 154.980469 338.078125 152.519531 337.527344 150.074219 336.914062 C 147.628906 336.300781 145.199219 335.628906 142.789062 334.898438 C 140.375 334.164062 137.984375 333.375 135.609375 332.527344 C 133.238281 331.675781 130.886719 330.769531 128.558594 329.804688 C 126.226562 328.839844 123.925781 327.820312 121.644531 326.742188 C 119.367188 325.664062 117.117188 324.53125 114.890625 323.34375 C 112.667969 322.152344 110.476562 320.910156 108.3125 319.617188 C 106.152344 318.320312 104.023438 316.972656 101.925781 315.570312 C 99.832031 314.171875 97.769531 312.71875 95.746094 311.21875 C 93.722656 309.714844 91.734375 308.167969 89.785156 306.566406 C 87.835938 304.96875 85.929688 303.320312 84.0625 301.628906 C 82.195312 299.9375 80.367188 298.199219 78.585938 296.414062 C 76.804688 294.632812 75.066406 292.808594 73.375 290.941406 C 71.679688 289.074219 70.035156 287.164062 68.433594 285.214844 C 66.835938 283.265625 65.285156 281.28125 63.785156 279.257812 C 62.28125 277.230469 60.832031 275.171875 59.429688 273.074219 C 58.03125 270.980469 56.683594 268.851562 55.386719 266.6875 C 54.089844 264.527344 52.847656 262.332031 51.660156 260.109375 C 50.472656 257.886719 49.339844 255.636719 48.261719 253.355469 C 47.183594 251.078125 46.160156 248.773438 45.195312 246.445312 C 44.230469 244.117188 43.324219 241.765625 42.476562 239.390625 C 41.625 237.019531 40.835938 234.625 40.105469 232.214844 C 39.371094 229.800781 38.699219 227.371094 38.089844 224.925781 C 37.476562 222.480469 36.921875 220.023438 36.433594 217.550781 C 35.941406 215.078125 35.507812 212.59375 35.140625 210.101562 C 34.769531 207.609375 34.460938 205.105469 34.214844 202.597656 C 33.964844 200.089844 33.78125 197.578125 33.65625 195.058594 C 33.535156 192.542969 33.472656 190.023438 33.472656 187.5 C 33.472656 184.980469 33.535156 182.460938 33.65625 179.941406 C 33.78125 177.425781 33.964844 174.914062 34.214844 172.402344 C 34.460938 169.894531 34.769531 167.394531 35.140625 164.898438 C 35.507812 162.40625 35.941406 159.925781 36.433594 157.453125 C 36.921875 154.980469 37.476562 152.519531 38.089844 150.074219 C 38.699219 147.628906 39.371094 145.199219 40.105469 142.789062 C 40.835938 140.375 41.625 137.984375 42.476562 135.609375 C 43.324219 133.238281 44.230469 130.886719 45.195312 128.558594 C 46.160156 126.226562 47.183594 123.925781 48.261719 121.644531 C 49.339844 119.367188 50.472656 117.117188 51.660156 114.890625 C 52.847656 112.667969 54.089844 110.476562 55.386719 108.3125 C 56.683594 106.152344 58.03125 104.023438 59.429688 101.925781 C 60.832031 99.832031 62.28125 97.769531 63.785156 95.746094 C 65.285156 93.722656 66.835938 91.734375 68.433594 89.785156 C 70.035156 87.835938 71.679688 85.929688 73.375 84.0625 C 75.066406 82.195312 76.804688 80.367188 78.585938 78.585938 C 80.367188 76.804688 82.195312 75.066406 84.0625 73.375 C 85.929688 71.679688 87.835938 70.035156 89.785156 68.433594 C 91.734375 66.835938 93.722656 65.285156 95.746094 63.785156 C 97.769531 62.28125 99.832031 60.832031 101.925781 59.429688 C 104.023438 58.03125 106.152344 56.683594 108.3125 55.386719 C 110.476562 54.089844 112.667969 52.847656 114.890625 51.660156 C 117.117188 50.472656 119.367188 49.339844 121.644531 48.261719 C 123.925781 47.183594 126.226562 46.160156 128.558594 45.195312 C 130.886719 44.230469 133.238281 43.324219 135.609375 42.476562 C 137.984375 41.625 140.375 40.835938 142.789062 40.105469 C 145.199219 39.371094 147.628906 38.699219 150.074219 38.089844 C 152.519531 37.476562 154.980469 36.921875 157.453125 36.433594 C 159.921875 35.941406 162.40625 35.507812 164.898438 35.140625 C 167.394531 34.769531 169.894531 34.460938 172.402344 34.214844 C 174.914062 33.964844 177.425781 33.78125 179.941406 33.65625 C 182.460938 33.535156 184.980469 33.472656 187.5 33.472656 C 190.023438 33.472656 192.542969 33.535156 195.058594 33.65625 C 197.578125 33.78125 200.089844 33.964844 202.597656 34.214844 C 205.105469 34.460938 207.609375 34.769531 210.101562 35.140625 C 212.59375 35.507812 215.078125 35.941406 217.550781 36.433594 C 220.023438 36.921875 222.480469 37.476562 224.925781 38.089844 C 227.371094 38.699219 229.800781 39.371094 232.214844 40.105469 C 234.625 40.835938 237.019531 41.625 239.390625 42.476562 C 241.765625 43.324219 244.117188 44.230469 246.445312 45.195312 C 248.773438 46.160156 251.078125 47.183594 253.355469 48.261719 C 255.636719 49.339844 257.886719 50.472656 260.109375 51.660156 C 262.332031 52.847656 264.527344 54.089844 266.6875 55.386719 C 268.851562 56.683594 270.980469 58.03125 273.074219 59.429688 C 275.171875 60.832031 277.230469 62.28125 279.257812 63.785156 C 281.28125 65.285156 283.265625 66.835938 285.214844 68.433594 C 287.164062 70.035156 289.074219 71.679688 290.941406 73.375 C 292.808594 75.066406 294.632812 76.804688 296.414062 78.585938 C 298.199219 80.367188 299.9375 82.195312 301.628906 84.0625 C 303.320312 85.929688 304.96875 87.835938 306.566406 89.785156 C 308.167969 91.734375 309.714844 93.722656 311.21875 95.746094 C 312.71875 97.769531 314.171875 99.832031 315.570312 101.925781 C 316.972656 104.023438 318.320312 106.152344 319.617188 108.3125 C 320.910156 110.476562 322.152344 112.667969 323.34375 114.890625 C 324.53125 117.117188 325.664062 119.367188 326.742188 121.644531 C 327.820312 123.925781 328.839844 126.226562 329.804688 128.558594 C 330.769531 130.886719 331.675781 133.238281 332.527344 135.609375 C 333.375 137.984375 334.164062 140.375 334.898438 142.789062 C 335.628906 145.199219 336.300781 147.628906 336.914062 150.074219 C 337.527344 152.519531 338.078125 154.980469 338.570312 157.453125 C 339.0625 159.925781 339.492188 162.40625 339.863281 164.898438 C 340.234375 167.394531 340.542969 169.894531 340.789062 172.402344 C 341.035156 174.914062 341.222656 177.425781 341.34375 179.941406 C 341.46875 182.460938 341.53125 184.980469 341.53125 187.5 Z M 341.53125 187.5 " fill-opacity="1" fill-rule="nonzero"/></g><g clip-path="url(#id2)"><path fill="rgb(34.899902%, 21.569824%, 10.978699%)" d="M 149.460938 316.742188 C 151.988281 318.089844 154.652344 315.175781 153.105469 312.765625 C 144.707031 299.683594 136.75 277.664062 149.425781 249.3125 C 170.5625 202.027344 183.425781 177.539062 183.425781 177.539062 C 183.425781 177.539062 190.265625 206.117188 208.808594 231.527344 C 226.65625 255.984375 236.425781 286.742188 220.675781 312.367188 C 219.199219 314.769531 221.804688 317.609375 224.316406 316.320312 C 243.8125 306.34375 265.675781 286.324219 268.144531 246.492188 C 269.054688 234.316406 267.6875 217.277344 260.867188 195.773438 C 252.097656 168.519531 241.316406 155.800781 235.074219 150.339844 C 233.207031 148.703125 230.308594 150.152344 230.460938 152.628906 C 232.277344 182.039062 221.222656 189.5 214.929688 172.679688 C 212.414062 165.964844 210.949219 154.34375 210.949219 140.199219 C 210.949219 116.640625 204.121094 92.390625 189.0625 72.6875 C 185.148438 67.5625 180.566406 62.777344 175.308594 58.691406 C 173.40625 57.214844 170.648438 58.699219 170.820312 61.105469 C 171.976562 77.074219 170.929688 122.839844 130.808594 177.515625 C 94.429688 228.230469 108.523438 267.183594 113.527344 277.734375 C 123.089844 297.941406 136.433594 309.8125 149.460938 316.742188 Z M 149.460938 316.742188 " fill-opacity="1" fill-rule="nonzero"/></g></svg>