<svg xmlns="http://www.w3.org/2000/svg" xmlns:xlink="http://www.w3.org/1999/xlink" width="500" zoomAndPan="magnify" viewBox="0 0 375 374.999991" height="500" preserveAspectRatio="xMidYMid meet" version="1.0"><defs><g><g id="id1"/></g><clipPath id="id2"><path d="M 51.191406 51.191406 L 323.628906 51.191406 L 323.628906 323.628906 L 51.191406 323.628906 Z M 51.191406 51.191406 " clip-rule="nonzero"/></clipPath><clipPath id="id3"><path d="M 209.125 215.746094 L 215.4375 215.746094 L 215.4375 226.566406 L 209.125 226.566406 Z M 209.125 215.746094 " clip-rule="nonzero"/></clipPath></defs><path fill="rgb(0%, 0%, 0%)" d="M 241.097656 299.390625 L 139.226562 299.390625 L 139.1875 299.351562 L 79.449219 240.972656 L 79.449219 240.917969 L 75.382812 143.625 L 75.417969 143.582031 L 134.25 80.226562 L 134.300781 80.226562 L 227.527344 75.703125 L 227.570312 75.738281 L 295.15625 138.1875 L 295.15625 138.242188 L 299.976562 234.628906 L 299.9375 234.671875 Z M 139.339844 299.117188 L 240.980469 299.117188 L 299.695312 234.53125 L 294.886719 138.3125 L 227.421875 75.980469 L 134.367188 80.496094 L 75.652344 143.730469 L 79.71875 240.855469 Z M 139.339844 299.117188 " fill-opacity="1" fill-rule="nonzero"/><path fill="rgb(0%, 0%, 0%)" d="M 218 304.757812 L 217.953125 304.753906 L 120.207031 288.984375 L 120.175781 288.933594 L 69.941406 217.429688 L 69.953125 217.375 L 84.882812 120.082031 L 84.933594 120.050781 L 164.121094 67.558594 L 164.175781 67.566406 L 250.167969 84.3125 L 250.199219 84.355469 L 299.972656 157.660156 L 299.964844 157.710938 L 293.386719 259.539062 L 293.324219 259.578125 Z M 120.367188 288.730469 L 217.945312 304.46875 L 293.125 259.375 L 299.695312 157.738281 L 250.003906 84.558594 L 164.1875 67.84375 L 85.132812 120.246094 L 70.230469 217.363281 Z M 120.367188 288.730469 " fill-opacity="1" fill-rule="nonzero"/><g clip-path="url(#id2)"><path fill="rgb(0%, 0%, 0%)" d="M 187.410156 323.632812 L 51.1875 187.410156 L 187.410156 51.1875 L 323.632812 187.410156 Z M 51.957031 187.410156 L 187.410156 322.863281 L 322.863281 187.410156 L 187.410156 51.957031 Z M 51.957031 187.410156 " fill-opacity="1" fill-rule="nonzero"/></g><g fill="rgb(0%, 0%, 0%)" fill-opacity="1"><g transform="translate(119.8797, 242.12267)"><g><path d="M 13.6875 -1.351562 C 13.6875 -1.351562 12.070312 0.046875 9.269531 0.046875 C 6.566406 0.046875 1.808594 -1.160156 1.808594 -7.507812 C 1.808594 -13.761719 6.929688 -15.039062 9.269531 -15.039062 C 12.117188 -15.039062 13.6875 -13.90625 13.6875 -13.90625 L 13.6875 -14.4375 C 13.6875 -14.4375 12.023438 -15.425781 9.269531 -15.425781 C 4.925781 -15.425781 0.964844 -13.109375 0.964844 -7.507812 C 0.964844 -1.0625 6.011719 0.457031 9.050781 0.457031 C 12.070312 0.457031 13.6875 -0.820312 13.6875 -0.820312 Z M 13.6875 -1.351562 "/></g></g></g><g fill="rgb(0%, 0%, 0%)" fill-opacity="1"><g transform="translate(134.59993, 242.12267)"><g><path d="M 0.84375 0.0234375 L 1.375 0.0234375 L 4.105469 -6.058594 L 10.910156 -6.058594 L 13.542969 0.0234375 L 14.484375 0.0234375 L 7.84375 -15.425781 L 7.726562 -15.425781 Z M 4.273438 -6.46875 L 7.582031 -13.878906 L 10.742188 -6.46875 Z M 4.273438 -6.46875 "/></g></g></g><g fill="rgb(0%, 0%, 0%)" fill-opacity="1"><g transform="translate(149.947587, 242.12267)"><g><path d="M 13.46875 -15.136719 L 13.085938 -15.136719 L 13.085938 -1.253906 L 1.230469 -15.425781 L 1.160156 -15.425781 L 1.160156 0.046875 L 1.546875 0.046875 L 1.546875 -13.6875 L 13.398438 0.457031 L 13.46875 0.457031 Z M 13.46875 -15.136719 "/></g></g></g><g fill="rgb(0%, 0%, 0%)" fill-opacity="1"><g transform="translate(164.691947, 242.12267)"><g><path d="M 7.410156 -15.136719 L 1.160156 -15.136719 L 1.160156 0.0234375 L 6.277344 0.0234375 C 7 0.0234375 15.085938 0.386719 15.085938 -7.796875 C 15.085938 -14.410156 10.210938 -15.136719 7.410156 -15.136719 Z M 6.226562 -0.363281 L 2.003906 -0.363281 L 2.003906 -14.726562 L 6.492188 -14.726562 C 9.246094 -14.726562 14.21875 -14.21875 14.21875 -7.796875 C 14.21875 -1.570312 9.535156 -0.363281 6.226562 -0.363281 Z M 6.226562 -0.363281 "/></g></g></g><g fill="rgb(0%, 0%, 0%)" fill-opacity="1"><g transform="translate(180.884203, 242.12267)"><g><path d="M 2.003906 -0.363281 L 2.003906 -15.136719 L 1.160156 -15.136719 L 1.160156 0.046875 L 8.90625 0.046875 L 8.90625 -0.363281 Z M 2.003906 -0.363281 "/></g></g></g><g fill="rgb(0%, 0%, 0%)" fill-opacity="1"><g transform="translate(190.729863, 242.12267)"><g><path d="M 8.835938 -14.75 L 8.835938 -15.136719 L 1.160156 -15.136719 L 1.160156 0.0234375 L 8.835938 0.0234375 L 8.835938 -0.363281 L 2.003906 -0.363281 L 2.003906 -7.699219 L 8.183594 -7.699219 L 8.183594 -8.085938 L 2.003906 -8.085938 L 2.003906 -14.75 Z M 8.835938 -14.75 "/></g></g></g><g fill="rgb(0%, 0%, 0%)" fill-opacity="1"><g transform="translate(200.599653, 242.12267)"><g><path d="M 2.003906 -0.363281 L 2.003906 -15.136719 L 1.160156 -15.136719 L 1.160156 0.046875 L 8.90625 0.046875 L 8.90625 -0.363281 Z M 2.003906 -0.363281 "/></g></g></g><g fill="rgb(0%, 0%, 0%)" fill-opacity="1"><g transform="translate(210.445313, 242.12267)"><g><path d="M 1.398438 0.046875 L 2.246094 0.046875 L 2.246094 -15.136719 L 1.398438 -15.136719 Z M 1.398438 0.046875 "/></g></g></g><g fill="rgb(0%, 0%, 0%)" fill-opacity="1"><g transform="translate(214.185707, 242.12267)"><g><path d="M 10.210938 -7.699219 L 10.210938 -7.289062 L 13.253906 -7.289062 L 13.253906 -0.84375 C 12.382812 -0.457031 10.960938 0.046875 9.269531 0.046875 C 5.503906 0.046875 1.808594 -1.835938 1.808594 -7.507812 C 1.808594 -13.761719 6.710938 -15.039062 9.269531 -15.039062 C 12.117188 -15.039062 13.6875 -14.363281 13.6875 -14.363281 L 13.6875 -14.847656 C 13.6875 -14.847656 12.023438 -15.425781 9.269531 -15.425781 C 4.925781 -15.425781 0.964844 -13.109375 0.964844 -7.507812 C 0.964844 -1.0625 6.011719 0.457031 9.050781 0.457031 C 12.070312 0.457031 14.097656 -0.820312 14.097656 -0.820312 L 14.097656 -7.699219 Z M 10.210938 -7.699219 "/></g></g></g><g fill="rgb(0%, 0%, 0%)" fill-opacity="1"><g transform="translate(229.485089, 242.12267)"><g><path d="M 10.839844 -15.136719 L 10.839844 -8.085938 L 2.003906 -8.085938 L 2.003906 -15.136719 L 1.160156 -15.136719 L 1.160156 0.0234375 L 2.003906 0.0234375 L 2.003906 -7.699219 L 10.839844 -7.699219 L 10.839844 0.0234375 L 11.707031 0.0234375 L 11.707031 -15.136719 Z M 10.839844 -15.136719 "/></g></g></g><g fill="rgb(0%, 0%, 0%)" fill-opacity="1"><g transform="translate(242.443715, 242.12267)"><g><path d="M 11.851562 -15.136719 L 0.796875 -15.136719 L 0.796875 -14.75 L 5.890625 -14.75 L 5.890625 0.046875 L 6.757812 0.046875 L 6.757812 -14.75 L 11.851562 -14.75 Z M 11.851562 -15.136719 "/></g></g></g><g clip-path="url(#id3)"><path fill="rgb(0%, 0%, 0%)" d="M 210.796875 226.554688 C 210.894531 226.609375 211 226.488281 210.9375 226.386719 C 210.609375 225.839844 210.300781 224.921875 210.792969 223.734375 C 211.621094 221.761719 212.121094 220.738281 212.121094 220.738281 C 212.121094 220.738281 212.386719 221.929688 213.113281 222.992188 C 213.808594 224.015625 214.191406 225.300781 213.574219 226.371094 C 213.519531 226.472656 213.621094 226.589844 213.71875 226.535156 C 214.480469 226.121094 215.332031 225.28125 215.429688 223.617188 C 215.464844 223.109375 215.410156 222.398438 215.144531 221.5 C 214.800781 220.359375 214.382812 219.828125 214.136719 219.601562 C 214.066406 219.53125 213.953125 219.59375 213.957031 219.695312 C 214.027344 220.925781 213.597656 221.238281 213.351562 220.535156 C 213.253906 220.253906 213.195312 219.769531 213.195312 219.175781 C 213.195312 218.191406 212.929688 217.179688 212.339844 216.355469 C 212.1875 216.140625 212.011719 215.941406 211.804688 215.769531 C 211.730469 215.707031 211.621094 215.769531 211.628906 215.871094 C 211.675781 216.539062 211.632812 218.449219 210.066406 220.734375 C 208.648438 222.855469 209.199219 224.484375 209.394531 224.925781 C 209.765625 225.769531 210.285156 226.265625 210.796875 226.554688 Z M 210.796875 226.554688 " fill-opacity="1" fill-rule="nonzero"/></g><g fill="rgb(0%, 0%, 0%)" fill-opacity="1"><g transform="translate(68.119356, 200.25311)"><g><path d="M 159.171875 -26.921875 C 155.421875 -27.347656 151.644531 -27.5625 147.84375 -27.5625 C 146.164062 -27.625 144.460938 -27.675781 142.734375 -27.71875 C 127.015625 -28.363281 111.253906 -28.53125 95.453125 -28.21875 C 94.660156 -28.21875 94.007812 -28.21875 93.5 -28.21875 C 92.632812 -28.269531 92.003906 -28.257812 91.609375 -28.1875 C 91.222656 -28.125 90.910156 -27.910156 90.671875 -27.546875 C 90.441406 -27.179688 90.164062 -26.585938 89.84375 -25.765625 C 89.632812 -25.296875 89.378906 -24.707031 89.078125 -24 C 86.453125 -18.269531 84.039062 -12.441406 81.84375 -6.515625 C 80.40625 -2.679688 79.296875 1.242188 78.515625 5.265625 C 78.222656 6.523438 78.117188 7.75 78.203125 8.9375 C 78.285156 10.125 78.820312 11.191406 79.8125 12.140625 C 79.945312 12.234375 79.992188 12.351562 79.953125 12.5 C 79.910156 12.644531 79.820312 12.78125 79.6875 12.90625 C 79.550781 13.039062 79.40625 13.125 79.25 13.15625 C 76.914062 13.507812 75.507812 12.675781 75.03125 10.65625 C 74.757812 9.519531 74.710938 8.351562 74.890625 7.15625 C 74.890625 7.0625 74.890625 6.992188 74.890625 6.953125 C 75.066406 4.890625 75.429688 2.84375 75.984375 0.8125 C 76.546875 -1.21875 77.171875 -3.253906 77.859375 -5.296875 C 80.078125 -11.421875 82.523438 -17.46875 85.203125 -23.4375 C 85.335938 -23.695312 85.441406 -23.953125 85.515625 -24.203125 C 85.660156 -24.503906 85.8125 -24.8125 85.96875 -25.125 C 86.175781 -25.550781 86.367188 -25.976562 86.546875 -26.40625 C 86.722656 -26.84375 86.796875 -27.296875 86.765625 -27.765625 C 86.546875 -27.941406 86.328125 -28.050781 86.109375 -28.09375 C 85.890625 -28.132812 85.675781 -28.132812 85.46875 -28.09375 C 85.425781 -28.09375 85.375 -28.09375 85.3125 -28.09375 C 83.46875 -28.09375 81.613281 -28.070312 79.75 -28.03125 C 79.238281 -28.03125 78.695312 -28.03125 78.125 -28.03125 C 77.4375 -28 76.859375 -27.785156 76.390625 -27.390625 C 75.921875 -26.992188 75.46875 -26.507812 75.03125 -25.9375 C 74.46875 -25.21875 73.898438 -24.492188 73.328125 -23.765625 C 70.910156 -20.679688 68.476562 -17.628906 66.03125 -14.609375 C 62.394531 -10.210938 58.597656 -5.972656 54.640625 -1.890625 C 50.679688 2.191406 46.484375 6.019531 42.046875 9.59375 C 36.472656 14.1875 30.554688 18.234375 24.296875 21.734375 C 14.710938 26.878906 4.671875 29.3125 -5.828125 29.03125 C -15.722656 28.820312 -24.644531 26.15625 -32.59375 21.03125 C -34.832031 19.59375 -36.816406 17.863281 -38.546875 15.84375 C -39.703125 14.40625 -40.617188 12.859375 -41.296875 11.203125 C -41.972656 9.546875 -42.3125 7.742188 -42.3125 5.796875 C -42.21875 3.460938 -41.679688 1.300781 -40.703125 -0.6875 C -39.734375 -2.6875 -38.390625 -4.5 -36.671875 -6.125 C -34.285156 -8.425781 -31.671875 -10.367188 -28.828125 -11.953125 C -26.054688 -13.566406 -23.203125 -14.976562 -20.265625 -16.1875 C -17.335938 -17.394531 -14.378906 -18.46875 -11.390625 -19.40625 C -6.566406 -20.957031 -1.691406 -22.265625 3.234375 -23.328125 C 8.160156 -24.390625 13.109375 -25.289062 18.078125 -26.03125 C 29.859375 -27.664062 41.671875 -28.742188 53.515625 -29.265625 C 59.554688 -29.640625 65.582031 -29.828125 71.59375 -29.828125 C 73.238281 -29.785156 74.515625 -30.484375 75.421875 -31.921875 C 77.015625 -34.160156 78.613281 -36.410156 80.21875 -38.671875 C 82.707031 -42.117188 85.160156 -45.628906 87.578125 -49.203125 C 98.804688 -65.972656 109.566406 -83.015625 119.859375 -100.328125 C 120.722656 -101.804688 121.566406 -103.300781 122.390625 -104.8125 C 122.785156 -105.570312 123.195312 -106.347656 123.625 -107.140625 C 124.132812 -108.140625 124.953125 -108.695312 126.078125 -108.8125 C 126.679688 -108.8125 127.125 -108.640625 127.40625 -108.296875 C 127.695312 -107.953125 127.734375 -107.5 127.515625 -106.9375 C 127.296875 -106.457031 127.050781 -106.003906 126.78125 -105.578125 C 125.113281 -102.585938 123.628906 -99.5625 122.328125 -96.5 C 121.835938 -95.425781 121.359375 -94.367188 120.890625 -93.328125 C 116.359375 -83.492188 111.800781 -73.644531 107.21875 -63.78125 C 103.726562 -56.1875 100.207031 -48.570312 96.65625 -40.9375 C 95.632812 -38.675781 94.625 -36.425781 93.625 -34.1875 C 93.40625 -33.71875 93.1875 -33.269531 92.96875 -32.84375 C 92.925781 -32.738281 92.890625 -32.628906 92.859375 -32.515625 C 92.710938 -32.203125 92.597656 -31.890625 92.515625 -31.578125 C 92.429688 -31.273438 92.457031 -30.976562 92.59375 -30.6875 C 92.882812 -30.46875 93.222656 -30.347656 93.609375 -30.328125 C 94.003906 -30.304688 94.367188 -30.296875 94.703125 -30.296875 C 94.984375 -30.335938 95.234375 -30.359375 95.453125 -30.359375 C 97.078125 -30.316406 98.710938 -30.316406 100.359375 -30.359375 C 102.597656 -30.359375 104.847656 -30.335938 107.109375 -30.296875 C 119.359375 -30.085938 131.617188 -29.828125 143.890625 -29.515625 C 147.910156 -29.429688 151.90625 -29.257812 155.875 -29 C 156.226562 -28.96875 156.601562 -28.953125 157 -28.953125 C 157.207031 -28.953125 157.441406 -28.953125 157.703125 -28.953125 C 158.210938 -28.953125 158.707031 -28.90625 159.1875 -28.8125 C 159.664062 -28.726562 160.125 -28.554688 160.5625 -28.296875 C 160.632812 -28.242188 160.691406 -28.148438 160.734375 -28.015625 C 160.773438 -27.890625 160.773438 -27.789062 160.734375 -27.71875 C 160.734375 -27.570312 160.675781 -27.445312 160.5625 -27.34375 C 160.457031 -27.238281 160.367188 -27.164062 160.296875 -27.125 C 159.941406 -26.988281 159.566406 -26.921875 159.171875 -26.921875 Z M 71.390625 -26.59375 C 71.523438 -26.863281 71.535156 -27.109375 71.421875 -27.328125 C 71.316406 -27.546875 71.140625 -27.65625 70.890625 -27.65625 C 70.492188 -27.695312 70.078125 -27.695312 69.640625 -27.65625 C 69.429688 -27.65625 69.21875 -27.65625 69 -27.65625 C 54.175781 -27.476562 39.34375 -26.457031 24.5 -24.59375 C 18.820312 -23.90625 13.175781 -23 7.5625 -21.875 C 1.945312 -20.757812 -3.613281 -19.359375 -9.125 -17.671875 C -12.070312 -16.765625 -14.976562 -15.726562 -17.84375 -14.5625 C -20.707031 -13.394531 -23.503906 -12.003906 -26.234375 -10.390625 C -29.085938 -8.804688 -31.679688 -6.863281 -34.015625 -4.5625 C -36.742188 -1.757812 -38.28125 1.222656 -38.625 4.390625 C -38.96875 7.566406 -38.117188 10.628906 -36.078125 13.578125 C -34.566406 15.640625 -32.757812 17.40625 -30.65625 18.875 C -23 24.3125 -13.878906 27.082031 -3.296875 27.1875 C -0.585938 27.1875 2.519531 26.832031 6.03125 26.125 C 9.53125 25.394531 12.910156 24.328125 16.171875 22.921875 C 19.429688 21.523438 22.59375 19.875 25.65625 17.96875 C 33.207031 13.3125 40.203125 7.890625 46.640625 1.703125 C 51.097656 -2.472656 55.300781 -6.875 59.25 -11.5 C 63.195312 -16.125 67.023438 -20.832031 70.734375 -25.625 C 70.953125 -25.976562 71.171875 -26.300781 71.390625 -26.59375 Z M 89.40625 -32.6875 C 92.25 -39.164062 95.1875 -45.625 98.21875 -52.0625 C 98.351562 -52.414062 98.804688 -53.429688 99.578125 -55.109375 C 100.359375 -56.785156 101.253906 -58.738281 102.265625 -60.96875 C 103.273438 -63.195312 104.203125 -65.300781 105.046875 -67.28125 C 105.890625 -69.269531 106.484375 -70.757812 106.828125 -71.75 C 107.171875 -72.738281 107.066406 -72.832031 106.515625 -72.03125 C 106.378906 -71.851562 106.269531 -71.675781 106.1875 -71.5 C 105.71875 -70.8125 105.269531 -70.125 104.84375 -69.4375 C 101.25 -63.863281 97.632812 -58.296875 94 -52.734375 C 90.363281 -47.179688 86.601562 -41.707031 82.71875 -36.3125 C 82.34375 -35.800781 81.960938 -35.257812 81.578125 -34.6875 C 80.828125 -33.664062 80.085938 -32.632812 79.359375 -31.59375 C 79.066406 -31.164062 78.984375 -30.804688 79.109375 -30.515625 C 79.242188 -30.234375 79.546875 -30.09375 80.015625 -30.09375 C 80.796875 -30.09375 81.570312 -30.113281 82.34375 -30.15625 C 83.5625 -30.25 84.769531 -30.296875 85.96875 -30.296875 C 86.882812 -30.265625 87.597656 -30.460938 88.109375 -30.890625 C 88.617188 -31.328125 89.050781 -31.925781 89.40625 -32.6875 Z M 89.40625 -32.6875 "/></g></g></g><g fill="rgb(0%, 0%, 0%)" fill-opacity="1"><g transform="translate(161.455473, 200.25311)"><g><path d="M 62.40625 -23.9375 C 62.625 -23.425781 62.75 -22.890625 62.78125 -22.328125 C 62.90625 -19.984375 62.6875 -17.390625 62.125 -14.546875 C 61.5625 -11.703125 60.601562 -8.894531 59.25 -6.125 C 57.894531 -3.351562 56.113281 -0.988281 53.90625 0.96875 C 51.695312 2.9375 49.039062 4.15625 45.9375 4.625 C 41.519531 5.269531 37.742188 4.535156 34.609375 2.421875 C 32.703125 1.078125 31.171875 -0.582031 30.015625 -2.5625 C 29.578125 -3.25 29.144531 -3.96875 28.71875 -4.71875 C 28.5 -5.050781 28.253906 -5.410156 27.984375 -5.796875 C 26.898438 -5.285156 25.925781 -4.617188 25.0625 -3.796875 C 24.769531 -3.546875 24.472656 -3.3125 24.171875 -3.09375 C 24.117188 -3.050781 24.050781 -2.984375 23.96875 -2.890625 C 21.59375 -0.941406 19.09375 0.84375 16.46875 2.46875 C 13.65625 4.125 10.847656 4.863281 8.046875 4.6875 C 5.628906 4.507812 3.914062 3.644531 2.90625 2.09375 C 1.90625 0.539062 1.800781 -1.460938 2.59375 -3.921875 C 3.0625 -5.429688 3.738281 -6.859375 4.625 -8.203125 C 5.507812 -9.546875 6.488281 -10.847656 7.5625 -12.109375 C 9.175781 -13.953125 10.875 -15.707031 12.65625 -17.375 C 14.445312 -19.039062 16.296875 -20.671875 18.203125 -22.265625 C 19.847656 -23.640625 21.535156 -24.972656 23.265625 -26.265625 C 24.523438 -27.191406 25.191406 -28.320312 25.265625 -29.65625 C 25.703125 -33.976562 26.632812 -38.335938 28.0625 -42.734375 C 29.007812 -45.753906 30.414062 -48.6875 32.28125 -51.53125 C 35.457031 -56.34375 39.597656 -58.613281 44.703125 -58.34375 C 47.253906 -58.300781 49.414062 -57.59375 51.1875 -56.21875 C 54.34375 -53.53125 54.554688 -49.914062 51.828125 -45.375 C 50.578125 -43.53125 49.085938 -41.804688 47.359375 -40.203125 C 45.722656 -38.648438 44.015625 -37.179688 42.234375 -35.796875 C 40.460938 -34.410156 38.675781 -33.070312 36.875 -31.78125 C 36.65625 -31.625 36.4375 -31.472656 36.21875 -31.328125 C 34.570312 -30.117188 32.953125 -28.914062 31.359375 -27.71875 C 30.671875 -27.28125 30.300781 -26.738281 30.25 -26.09375 C 30.207031 -25.519531 30.1875 -24.957031 30.1875 -24.40625 C 30.144531 -22.6875 30.175781 -20.988281 30.28125 -19.3125 C 30.394531 -17.644531 30.707031 -16.054688 31.21875 -14.546875 C 31.28125 -14.503906 31.347656 -14.46875 31.421875 -14.4375 C 31.460938 -14.394531 31.484375 -14.375 31.484375 -14.375 C 32.484375 -14.882812 33.363281 -15.503906 34.125 -16.234375 C 34.40625 -16.441406 34.671875 -16.6875 34.921875 -16.96875 C 40.441406 -21.40625 46.097656 -25.632812 51.890625 -29.65625 C 52.710938 -30.207031 53.554688 -30.75 54.421875 -31.28125 C 55.285156 -31.820312 56.171875 -32.035156 57.078125 -31.921875 C 57.609375 -31.878906 57.953125 -31.664062 58.109375 -31.28125 C 58.203125 -30.957031 58.160156 -30.703125 57.984375 -30.515625 C 57.804688 -30.335938 57.609375 -30.160156 57.390625 -29.984375 C 56.878906 -29.546875 56.363281 -29.113281 55.84375 -28.6875 C 55.332031 -28.332031 54.835938 -27.9375 54.359375 -27.5 C 53.285156 -26.675781 52.226562 -25.832031 51.1875 -24.96875 C 45.488281 -20.394531 39.800781 -15.800781 34.125 -11.1875 C 33.269531 -10.5 32.773438 -9.957031 32.640625 -9.5625 C 32.515625 -9.175781 32.609375 -8.640625 32.921875 -7.953125 C 33.867188 -5.648438 35.097656 -3.597656 36.609375 -1.796875 C 37.828125 -0.359375 39.335938 0.71875 41.140625 1.4375 C 43.648438 2.300781 45.914062 2.300781 47.9375 1.4375 C 49.96875 0.570312 51.71875 -0.847656 53.1875 -2.828125 C 54.65625 -4.804688 55.832031 -7.035156 56.71875 -9.515625 C 57.601562 -12.003906 58.148438 -14.425781 58.359375 -16.78125 C 58.578125 -19.132812 58.429688 -21.109375 57.921875 -22.703125 C 57.921875 -22.921875 57.90625 -23.117188 57.875 -23.296875 C 57.769531 -23.546875 57.71875 -23.8125 57.71875 -24.09375 C 57.71875 -24.382812 57.816406 -24.628906 58.015625 -24.828125 C 58.210938 -25.023438 58.457031 -25.160156 58.75 -25.234375 C 60.613281 -25.765625 61.832031 -25.332031 62.40625 -23.9375 Z M 35.84375 -48.828125 C 35.019531 -47.359375 34.335938 -45.875 33.796875 -44.375 C 33.253906 -42.882812 32.765625 -41.382812 32.328125 -39.875 C 32.191406 -39.320312 32.066406 -38.742188 31.953125 -38.140625 C 31.597656 -36.628906 31.296875 -35.097656 31.046875 -33.546875 C 30.941406 -33.191406 31.019531 -32.957031 31.28125 -32.84375 C 31.550781 -32.738281 31.851562 -32.796875 32.1875 -33.015625 C 34.269531 -34.441406 36.300781 -35.921875 38.28125 -37.453125 C 40.269531 -38.984375 42.175781 -40.65625 44 -42.46875 C 45.332031 -43.820312 46.429688 -45.273438 47.296875 -46.828125 C 49.242188 -50.890625 48.523438 -53.675781 45.140625 -55.1875 C 43.515625 -55.875 41.816406 -55.5 40.046875 -54.0625 C 39.128906 -53.34375 38.335938 -52.539062 37.671875 -51.65625 C 37.003906 -50.769531 36.394531 -49.828125 35.84375 -48.828125 Z M 25.390625 -9.046875 C 26.253906 -9.785156 26.535156 -10.585938 26.234375 -11.453125 C 25.453125 -14.515625 25.003906 -17.722656 24.890625 -21.078125 C 24.890625 -21.253906 24.835938 -21.472656 24.734375 -21.734375 C 24.660156 -21.910156 24.601562 -22.125 24.5625 -22.375 C 21.925781 -20.394531 19.492188 -18.359375 17.265625 -16.265625 C 15.035156 -14.179688 12.972656 -11.96875 11.078125 -9.625 C 9.304688 -7.46875 8.117188 -5.179688 7.515625 -2.765625 C 7.210938 -1.472656 7.367188 -0.34375 7.984375 0.625 C 8.671875 1.820312 9.859375 2.003906 11.546875 1.171875 C 12.453125 0.804688 13.316406 0.335938 14.140625 -0.234375 C 17.378906 -2.472656 20.507812 -4.890625 23.53125 -7.484375 C 24.113281 -8.015625 24.734375 -8.535156 25.390625 -9.046875 Z M 25.390625 -9.046875 "/></g></g></g><g fill="rgb(0%, 0%, 0%)" fill-opacity="1"><g transform="translate(222.992534, 200.25311)"><g><path d="M 109.8125 -45.859375 C 109.601562 -45.816406 109.367188 -45.8125 109.109375 -45.84375 C 108.859375 -45.882812 108.625 -45.992188 108.40625 -46.171875 C 108.144531 -46.429688 108.035156 -46.664062 108.078125 -46.875 C 108.117188 -47.09375 108.207031 -47.289062 108.34375 -47.46875 C 110.40625 -50.789062 112.191406 -54.265625 113.703125 -57.890625 C 114.660156 -60.128906 115.503906 -62.4375 116.234375 -64.8125 C 116.703125 -66.289062 116.742188 -67.875 116.359375 -69.5625 C 115.984375 -71.363281 114.898438 -72.640625 113.109375 -73.390625 C 111.734375 -73.898438 110.332031 -74.175781 108.90625 -74.21875 C 108.644531 -74.21875 108.390625 -74.21875 108.140625 -74.21875 C 105.117188 -74.09375 102.179688 -73.660156 99.328125 -72.921875 C 94.398438 -71.722656 89.632812 -70.234375 85.03125 -68.453125 C 80.425781 -66.679688 75.925781 -64.742188 71.53125 -62.640625 C 52.226562 -53.253906 34.953125 -41.394531 19.703125 -27.0625 C 15.847656 -23.601562 12.476562 -19.738281 9.59375 -15.46875 C 8.59375 -13.945312 7.710938 -12.34375 6.953125 -10.65625 C 6.515625 -9.71875 6.207031 -8.707031 6.03125 -7.625 C 5.382812 -4.132812 6.898438 -1.523438 10.578125 0.203125 C 13.671875 1.640625 16.820312 2.445312 20.03125 2.625 C 22.539062 2.832031 24.984375 2.9375 27.359375 2.9375 C 28.472656 2.9375 29.550781 2.890625 30.59375 2.796875 C 45.71875 2.640625 59.992188 0.675781 73.421875 -3.09375 C 73.628906 -3.164062 73.84375 -3.222656 74.0625 -3.265625 C 74.96875 -3.578125 75.921875 -3.820312 76.921875 -4 C 77.179688 -4.039062 77.609375 -4.082031 78.203125 -4.125 C 78.796875 -4.164062 79.363281 -4.128906 79.90625 -4.015625 C 80.445312 -3.910156 80.785156 -3.660156 80.921875 -3.265625 C 80.960938 -3.046875 80.925781 -2.882812 80.8125 -2.78125 C 80.707031 -2.675781 80.550781 -2.601562 80.34375 -2.5625 C 79.507812 -2.34375 78.691406 -2.128906 77.890625 -1.921875 C 75.453125 -1.265625 73.03125 -0.632812 70.625 -0.03125 C 57.019531 3.46875 42.890625 5.164062 28.234375 5.0625 C 25.210938 5.0625 22.191406 5.003906 19.171875 4.890625 C 15.773438 4.753906 12.367188 4.035156 8.953125 2.734375 C 2.160156 0.109375 -0.210938 -4.226562 1.828125 -10.28125 C 2.648438 -12.695312 3.816406 -14.925781 5.328125 -16.96875 C 7.429688 -19.988281 9.757812 -22.789062 12.3125 -25.375 C 14.863281 -27.96875 17.523438 -30.472656 20.296875 -32.890625 C 32.640625 -43.765625 46.222656 -53.113281 61.046875 -60.9375 C 65.585938 -63.3125 70.207031 -65.523438 74.90625 -67.578125 C 79.601562 -69.628906 84.457031 -71.4375 89.46875 -73 C 93.664062 -74.332031 97.984375 -75.34375 102.421875 -76.03125 C 104.210938 -76.289062 105.988281 -76.421875 107.75 -76.421875 C 108.914062 -76.421875 110.085938 -76.378906 111.265625 -76.296875 C 112.640625 -76.160156 114.015625 -75.878906 115.390625 -75.453125 C 119.117188 -74.117188 121.019531 -71.65625 121.09375 -68.0625 C 121.09375 -66.46875 120.878906 -64.9375 120.453125 -63.46875 C 119.546875 -60.613281 118.429688 -57.867188 117.109375 -55.234375 C 115.796875 -52.609375 114.382812 -50.039062 112.875 -47.53125 C 112.445312 -46.664062 111.75 -46.109375 110.78125 -45.859375 C 110.488281 -45.816406 110.21875 -45.816406 109.96875 -45.859375 Z M 109.8125 -45.859375 "/></g></g></g></svg>