<svg xmlns="http://www.w3.org/2000/svg" xmlns:xlink="http://www.w3.org/1999/xlink" width="500" zoomAndPan="magnify" viewBox="0 0 375 374.999991" height="500" preserveAspectRatio="xMidYMid meet" version="1.0"><defs><g><g id="id1"/></g><clipPath id="id2"><path d="M 58.128906 58.128906 L 316.699219 58.128906 L 316.699219 316.699219 L 58.128906 316.699219 Z M 58.128906 58.128906 " clip-rule="nonzero"/></clipPath><clipPath id="id3"><path d="M 210.902344 229.816406 L 216.039062 229.816406 L 216.039062 234.953125 L 210.902344 234.953125 Z M 210.902344 229.816406 " clip-rule="nonzero"/></clipPath><clipPath id="id4"><path d="M 208.023438 217.589844 L 214.015625 217.589844 L 214.015625 227.859375 L 208.023438 227.859375 Z M 208.023438 217.589844 " clip-rule="nonzero"/></clipPath></defs><rect x="-37.5" width="450" fill="rgb(100%, 100%, 100%)" y="-37.499999" height="449.999989" fill-opacity="1"/><rect x="-37.5" width="450" fill="rgb(100%, 100%, 100%)" y="-37.499999" height="449.999989" fill-opacity="1"/><rect x="-37.5" width="450" fill="rgb(89.408875%, 69.40918%, 64.709473%)" y="-37.499999" height="449.999989" fill-opacity="1"/><path fill="rgb(34.899902%, 21.569824%, 10.978699%)" d="M 238.371094 293.695312 L 141.683594 293.695312 L 141.644531 293.660156 L 84.949219 238.25 L 84.949219 238.199219 L 81.085938 145.859375 L 81.125 145.816406 L 136.957031 85.6875 L 137.011719 85.6875 L 225.488281 81.390625 L 225.53125 81.429688 L 289.675781 140.695312 L 289.675781 140.75 L 294.25 232.230469 L 294.214844 232.269531 Z M 141.789062 293.4375 L 238.257812 293.4375 L 293.984375 232.136719 L 289.417969 140.816406 L 225.390625 81.65625 L 137.070312 85.941406 L 81.34375 145.957031 L 85.203125 238.136719 Z M 141.789062 293.4375 " fill-opacity="1" fill-rule="nonzero"/><path fill="rgb(34.899902%, 21.569824%, 10.978699%)" d="M 216.449219 298.789062 L 216.402344 298.785156 L 123.632812 283.820312 L 123.601562 283.773438 L 75.925781 215.90625 L 75.9375 215.855469 L 90.105469 123.515625 L 90.152344 123.484375 L 165.3125 73.660156 L 165.363281 73.671875 L 246.976562 89.566406 L 247.007812 89.605469 L 294.246094 159.179688 L 294.242188 159.226562 L 287.996094 255.875 L 287.941406 255.910156 Z M 123.78125 283.578125 L 216.398438 298.515625 L 287.75 255.71875 L 293.984375 159.253906 L 246.824219 89.796875 L 165.375 73.933594 L 90.34375 123.667969 L 76.199219 215.84375 Z M 123.78125 283.578125 " fill-opacity="1" fill-rule="nonzero"/><g clip-path="url(#id2)"><path fill="rgb(34.899902%, 21.569824%, 10.978699%)" d="M 187.414062 316.707031 L 58.125 187.414062 L 187.414062 58.125 L 316.707031 187.414062 Z M 58.855469 187.414062 L 187.414062 315.972656 L 315.972656 187.414062 L 187.414062 58.855469 Z M 58.855469 187.414062 " fill-opacity="1" fill-rule="nonzero"/></g><g clip-path="url(#id3)"><path fill="rgb(89.408875%, 69.40918%, 64.709473%)" d="M 216.039062 232.382812 C 216.039062 232.726562 215.972656 233.050781 215.84375 233.367188 C 215.714844 233.683594 215.527344 233.960938 215.285156 234.199219 C 215.046875 234.441406 214.769531 234.628906 214.453125 234.757812 C 214.140625 234.886719 213.8125 234.953125 213.472656 234.953125 C 213.128906 234.953125 212.800781 234.886719 212.488281 234.757812 C 212.171875 234.628906 211.894531 234.441406 211.65625 234.199219 C 211.414062 233.960938 211.226562 233.683594 211.097656 233.367188 C 210.96875 233.050781 210.902344 232.726562 210.902344 232.382812 C 210.902344 232.042969 210.96875 231.714844 211.097656 231.402344 C 211.226562 231.085938 211.414062 230.808594 211.65625 230.566406 C 211.894531 230.328125 212.171875 230.140625 212.488281 230.011719 C 212.800781 229.882812 213.128906 229.816406 213.472656 229.816406 C 213.8125 229.816406 214.140625 229.882812 214.453125 230.011719 C 214.769531 230.140625 215.046875 230.328125 215.285156 230.566406 C 215.527344 230.808594 215.714844 231.085938 215.84375 231.402344 C 215.972656 231.714844 216.039062 232.042969 216.039062 232.382812 Z M 216.039062 232.382812 " fill-opacity="1" fill-rule="nonzero"/></g><g fill="rgb(34.899902%, 21.569824%, 10.978699%)" fill-opacity="1"><g transform="translate(123.315889, 243.799642)"><g><path d="M 12.992188 -1.28125 C 12.992188 -1.28125 11.457031 0.046875 8.796875 0.046875 C 6.230469 0.046875 1.71875 -1.101562 1.71875 -7.125 C 1.71875 -13.0625 6.574219 -14.273438 8.796875 -14.273438 C 11.503906 -14.273438 12.992188 -13.199219 12.992188 -13.199219 L 12.992188 -13.703125 C 12.992188 -13.703125 11.410156 -14.640625 8.796875 -14.640625 C 4.675781 -14.640625 0.917969 -12.441406 0.917969 -7.125 C 0.917969 -1.007812 5.707031 0.433594 8.59375 0.433594 C 11.457031 0.433594 12.992188 -0.777344 12.992188 -0.777344 Z M 12.992188 -1.28125 "/></g></g></g><g fill="rgb(34.899902%, 21.569824%, 10.978699%)" fill-opacity="1"><g transform="translate(137.286779, 243.799642)"><g><path d="M 0.800781 0.0234375 L 1.304688 0.0234375 L 3.894531 -5.75 L 10.355469 -5.75 L 12.855469 0.0234375 L 13.746094 0.0234375 L 7.445312 -14.640625 L 7.332031 -14.640625 Z M 4.054688 -6.140625 L 7.195312 -13.175781 L 10.195312 -6.140625 Z M 4.054688 -6.140625 "/></g></g></g><g fill="rgb(34.899902%, 21.569824%, 10.978699%)" fill-opacity="1"><g transform="translate(151.853145, 243.799642)"><g><path d="M 12.785156 -14.367188 L 12.417969 -14.367188 L 12.417969 -1.191406 L 1.167969 -14.640625 L 1.101562 -14.640625 L 1.101562 0.046875 L 1.464844 0.046875 L 1.464844 -12.992188 L 12.71875 0.433594 L 12.785156 0.433594 Z M 12.785156 -14.367188 "/></g></g></g><g fill="rgb(34.899902%, 21.569824%, 10.978699%)" fill-opacity="1"><g transform="translate(165.846935, 243.799642)"><g><path d="M 7.035156 -14.367188 L 1.101562 -14.367188 L 1.101562 0.0234375 L 5.957031 0.0234375 C 6.644531 0.0234375 14.320312 0.367188 14.320312 -7.402344 C 14.320312 -13.679688 9.691406 -14.367188 7.035156 -14.367188 Z M 5.910156 -0.34375 L 1.902344 -0.34375 L 1.902344 -13.976562 L 6.164062 -13.976562 C 8.777344 -13.976562 13.496094 -13.496094 13.496094 -7.402344 C 13.496094 -1.488281 9.050781 -0.34375 5.910156 -0.34375 Z M 5.910156 -0.34375 "/></g></g></g><g fill="rgb(34.899902%, 21.569824%, 10.978699%)" fill-opacity="1"><g transform="translate(181.214908, 243.799642)"><g><path d="M 1.902344 -0.34375 L 1.902344 -14.367188 L 1.101562 -14.367188 L 1.101562 0.046875 L 8.453125 0.046875 L 8.453125 -0.34375 Z M 1.902344 -0.34375 "/></g></g></g><g fill="rgb(34.899902%, 21.569824%, 10.978699%)" fill-opacity="1"><g transform="translate(190.559373, 243.799642)"><g><path d="M 8.386719 -14 L 8.386719 -14.367188 L 1.101562 -14.367188 L 1.101562 0.0234375 L 8.386719 0.0234375 L 8.386719 -0.34375 L 1.902344 -0.34375 L 1.902344 -7.308594 L 7.769531 -7.308594 L 7.769531 -7.675781 L 1.902344 -7.675781 L 1.902344 -14 Z M 8.386719 -14 "/></g></g></g><g fill="rgb(34.899902%, 21.569824%, 10.978699%)" fill-opacity="1"><g transform="translate(199.926739, 243.799642)"><g><path d="M 1.902344 -0.34375 L 1.902344 -14.367188 L 1.101562 -14.367188 L 1.101562 0.046875 L 8.453125 0.046875 L 8.453125 -0.34375 Z M 1.902344 -0.34375 "/></g></g></g><g fill="rgb(34.899902%, 21.569824%, 10.978699%)" fill-opacity="1"><g transform="translate(209.271203, 243.799642)"><g><path d="M 1.328125 0.046875 L 2.132812 0.046875 L 2.132812 -14.367188 L 1.328125 -14.367188 Z M 1.328125 0.046875 "/></g></g></g><g fill="rgb(34.899902%, 21.569824%, 10.978699%)" fill-opacity="1"><g transform="translate(212.821177, 243.799642)"><g><path d="M 9.691406 -7.308594 L 9.691406 -6.917969 L 12.578125 -6.917969 L 12.578125 -0.800781 C 11.753906 -0.433594 10.402344 0.046875 8.796875 0.046875 C 5.222656 0.046875 1.71875 -1.742188 1.71875 -7.125 C 1.71875 -13.0625 6.371094 -14.273438 8.796875 -14.273438 C 11.503906 -14.273438 12.992188 -13.632812 12.992188 -13.632812 L 12.992188 -14.089844 C 12.992188 -14.089844 11.410156 -14.640625 8.796875 -14.640625 C 4.675781 -14.640625 0.917969 -12.441406 0.917969 -7.125 C 0.917969 -1.007812 5.707031 0.433594 8.59375 0.433594 C 11.457031 0.433594 13.382812 -0.777344 13.382812 -0.777344 L 13.382812 -7.308594 Z M 9.691406 -7.308594 "/></g></g></g><g fill="rgb(34.899902%, 21.569824%, 10.978699%)" fill-opacity="1"><g transform="translate(227.341742, 243.799642)"><g><path d="M 10.289062 -14.367188 L 10.289062 -7.675781 L 1.902344 -7.675781 L 1.902344 -14.367188 L 1.101562 -14.367188 L 1.101562 0.0234375 L 1.902344 0.0234375 L 1.902344 -7.308594 L 10.289062 -7.308594 L 10.289062 0.0234375 L 11.113281 0.0234375 L 11.113281 -14.367188 Z M 10.289062 -14.367188 "/></g></g></g><g fill="rgb(34.899902%, 21.569824%, 10.978699%)" fill-opacity="1"><g transform="translate(239.640704, 243.799642)"><g><path d="M 11.25 -14.367188 L 0.757812 -14.367188 L 0.757812 -14 L 5.589844 -14 L 5.589844 0.046875 L 6.414062 0.046875 L 6.414062 -14 L 11.25 -14 Z M 11.25 -14.367188 "/></g></g></g><g clip-path="url(#id4)"><path fill="rgb(34.899902%, 21.569824%, 10.978699%)" d="M 209.609375 227.847656 C 209.703125 227.902344 209.800781 227.785156 209.746094 227.6875 C 209.433594 227.171875 209.140625 226.296875 209.609375 225.171875 C 210.390625 223.296875 210.867188 222.324219 210.867188 222.324219 C 210.867188 222.324219 211.121094 223.460938 211.808594 224.46875 C 212.46875 225.4375 212.832031 226.65625 212.25 227.671875 C 212.195312 227.769531 212.289062 227.882812 212.382812 227.832031 C 213.105469 227.433594 213.914062 226.640625 214.007812 225.0625 C 214.042969 224.578125 213.992188 223.902344 213.738281 223.050781 C 213.414062 221.96875 213.011719 221.464844 212.78125 221.246094 C 212.714844 221.183594 212.605469 221.238281 212.609375 221.339844 C 212.679688 222.503906 212.269531 222.800781 212.035156 222.132812 C 211.941406 221.867188 211.886719 221.40625 211.886719 220.84375 C 211.886719 219.910156 211.636719 218.949219 211.078125 218.167969 C 210.933594 217.964844 210.761719 217.773438 210.566406 217.613281 C 210.496094 217.554688 210.394531 217.613281 210.402344 217.707031 C 210.445312 218.339844 210.40625 220.15625 208.917969 222.324219 C 207.570312 224.335938 208.09375 225.882812 208.277344 226.300781 C 208.632812 227.101562 209.128906 227.570312 209.609375 227.847656 Z M 209.609375 227.847656 " fill-opacity="1" fill-rule="nonzero"/></g><g fill="rgb(34.899902%, 21.569824%, 10.978699%)" fill-opacity="1"><g transform="translate(74.192699, 208.144483)"><g><path d="M 151.046875 -25.546875 C 147.492188 -25.953125 143.910156 -26.15625 140.296875 -26.15625 C 138.710938 -26.207031 137.097656 -26.253906 135.453125 -26.296875 C 120.535156 -26.910156 105.578125 -27.066406 90.578125 -26.765625 C 89.828125 -26.765625 89.210938 -26.765625 88.734375 -26.765625 C 87.910156 -26.828125 87.3125 -26.820312 86.9375 -26.75 C 86.5625 -26.6875 86.265625 -26.484375 86.046875 -26.140625 C 85.828125 -25.796875 85.566406 -25.234375 85.265625 -24.453125 C 85.054688 -24.003906 84.8125 -23.445312 84.53125 -22.78125 C 82.039062 -17.332031 79.75 -11.796875 77.65625 -6.171875 C 76.300781 -2.546875 75.25 1.175781 74.5 5 C 74.226562 6.195312 74.132812 7.359375 74.21875 8.484375 C 74.300781 9.609375 74.804688 10.617188 75.734375 11.515625 C 75.867188 11.609375 75.914062 11.722656 75.875 11.859375 C 75.832031 12.003906 75.742188 12.132812 75.609375 12.25 C 75.484375 12.375 75.347656 12.453125 75.203125 12.484375 C 72.984375 12.828125 71.648438 12.035156 71.203125 10.109375 C 70.941406 9.035156 70.894531 7.929688 71.0625 6.796875 C 71.0625 6.703125 71.0625 6.632812 71.0625 6.59375 C 71.226562 4.632812 71.578125 2.691406 72.109375 0.765625 C 72.640625 -1.160156 73.234375 -3.09375 73.890625 -5.03125 C 75.992188 -10.84375 78.3125 -16.582031 80.84375 -22.25 C 80.976562 -22.488281 81.082031 -22.726562 81.15625 -22.96875 C 81.289062 -23.25 81.429688 -23.539062 81.578125 -23.84375 C 81.785156 -24.25 81.972656 -24.65625 82.140625 -25.0625 C 82.304688 -25.476562 82.367188 -25.910156 82.328125 -26.359375 C 82.117188 -26.523438 81.910156 -26.625 81.703125 -26.65625 C 81.503906 -26.695312 81.300781 -26.695312 81.09375 -26.65625 C 81.0625 -26.65625 81.015625 -26.65625 80.953125 -26.65625 C 79.203125 -26.65625 77.441406 -26.640625 75.671875 -26.609375 C 75.191406 -26.609375 74.679688 -26.609375 74.140625 -26.609375 C 73.484375 -26.566406 72.929688 -26.359375 72.484375 -25.984375 C 72.046875 -25.617188 71.617188 -25.164062 71.203125 -24.625 C 70.660156 -23.9375 70.125 -23.242188 69.59375 -22.546875 C 67.300781 -19.628906 64.988281 -16.734375 62.65625 -13.859375 C 59.207031 -9.679688 55.601562 -5.65625 51.84375 -1.78125 C 48.09375 2.09375 44.113281 5.722656 39.90625 9.109375 C 34.613281 13.472656 29 17.3125 23.0625 20.625 C 13.96875 25.507812 4.4375 27.820312 -5.53125 27.5625 C -14.925781 27.351562 -23.394531 24.816406 -30.9375 19.953125 C -33.0625 18.585938 -34.941406 16.945312 -36.578125 15.03125 C -37.679688 13.675781 -38.550781 12.207031 -39.1875 10.625 C -39.832031 9.050781 -40.15625 7.34375 -40.15625 5.5 C -40.0625 3.289062 -39.550781 1.238281 -38.625 -0.65625 C -37.707031 -2.550781 -36.429688 -4.269531 -34.796875 -5.8125 C -32.535156 -7.988281 -30.054688 -9.832031 -27.359375 -11.34375 C -24.734375 -12.875 -22.023438 -14.210938 -19.234375 -15.359375 C -16.453125 -16.503906 -13.644531 -17.523438 -10.8125 -18.421875 C -6.226562 -19.890625 -1.597656 -21.125 3.078125 -22.125 C 7.753906 -23.132812 12.445312 -23.992188 17.15625 -24.703125 C 28.332031 -26.253906 39.539062 -27.28125 50.78125 -27.78125 C 56.519531 -28.132812 62.238281 -28.3125 67.9375 -28.3125 C 69.5 -28.269531 70.710938 -28.929688 71.578125 -30.296875 C 73.078125 -32.421875 74.59375 -34.550781 76.125 -36.6875 C 78.488281 -39.96875 80.816406 -43.304688 83.109375 -46.703125 C 93.765625 -62.609375 103.972656 -78.78125 113.734375 -95.21875 C 114.554688 -96.613281 115.359375 -98.03125 116.140625 -99.46875 C 116.515625 -100.1875 116.90625 -100.921875 117.3125 -101.671875 C 117.800781 -102.617188 118.578125 -103.148438 119.640625 -103.265625 C 120.210938 -103.265625 120.632812 -103.097656 120.90625 -102.765625 C 121.175781 -102.441406 121.210938 -102.007812 121.015625 -101.46875 C 120.804688 -101.019531 120.570312 -100.59375 120.3125 -100.1875 C 118.726562 -97.351562 117.320312 -94.484375 116.09375 -91.578125 C 115.625 -90.554688 115.164062 -89.550781 114.71875 -88.5625 C 110.414062 -79.226562 106.09375 -69.882812 101.75 -60.53125 C 98.4375 -53.320312 95.09375 -46.09375 91.71875 -38.84375 C 90.75 -36.695312 89.789062 -34.566406 88.84375 -32.453125 C 88.632812 -32.003906 88.429688 -31.570312 88.234375 -31.15625 C 88.191406 -31.0625 88.148438 -30.960938 88.109375 -30.859375 C 87.984375 -30.554688 87.878906 -30.257812 87.796875 -29.96875 C 87.710938 -29.6875 87.734375 -29.40625 87.859375 -29.125 C 88.140625 -28.914062 88.46875 -28.800781 88.84375 -28.78125 C 89.21875 -28.757812 89.5625 -28.75 89.875 -28.75 C 90.132812 -28.789062 90.367188 -28.8125 90.578125 -28.8125 C 92.117188 -28.769531 93.671875 -28.769531 95.234375 -28.8125 C 97.359375 -28.8125 99.492188 -28.789062 101.640625 -28.75 C 113.265625 -28.550781 124.898438 -28.300781 136.546875 -28 C 140.367188 -27.925781 144.160156 -27.769531 147.921875 -27.53125 C 148.253906 -27.488281 148.609375 -27.46875 148.984375 -27.46875 C 149.191406 -27.46875 149.414062 -27.46875 149.65625 -27.46875 C 150.132812 -27.46875 150.601562 -27.425781 151.0625 -27.34375 C 151.519531 -27.257812 151.953125 -27.097656 152.359375 -26.859375 C 152.429688 -26.796875 152.488281 -26.703125 152.53125 -26.578125 C 152.570312 -26.460938 152.570312 -26.367188 152.53125 -26.296875 C 152.53125 -26.171875 152.476562 -26.054688 152.375 -25.953125 C 152.269531 -25.847656 152.179688 -25.773438 152.109375 -25.734375 C 151.773438 -25.609375 151.421875 -25.546875 151.046875 -25.546875 Z M 67.75 -25.234375 C 67.875 -25.492188 67.882812 -25.722656 67.78125 -25.921875 C 67.675781 -26.128906 67.503906 -26.234375 67.265625 -26.234375 C 66.890625 -26.273438 66.5 -26.273438 66.09375 -26.234375 C 65.882812 -26.234375 65.679688 -26.234375 65.484375 -26.234375 C 51.410156 -26.066406 37.332031 -25.097656 23.25 -23.328125 C 17.863281 -22.679688 12.503906 -21.828125 7.171875 -20.765625 C 1.847656 -19.703125 -3.425781 -18.367188 -8.65625 -16.765625 C -11.457031 -15.910156 -14.21875 -14.925781 -16.9375 -13.8125 C -19.65625 -12.707031 -22.3125 -11.390625 -24.90625 -9.859375 C -27.601562 -8.347656 -30.0625 -6.503906 -32.28125 -4.328125 C -34.863281 -1.660156 -36.316406 1.171875 -36.640625 4.171875 C -36.972656 7.179688 -36.171875 10.085938 -34.234375 12.890625 C -32.796875 14.835938 -31.082031 16.507812 -29.09375 17.90625 C -21.820312 23.070312 -13.164062 25.703125 -3.125 25.796875 C -0.550781 25.796875 2.398438 25.457031 5.734375 24.78125 C 9.046875 24.09375 12.25 23.082031 15.34375 21.75 C 18.4375 20.425781 21.4375 18.859375 24.34375 17.046875 C 31.507812 12.628906 38.148438 7.488281 44.265625 1.625 C 48.492188 -2.34375 52.476562 -6.519531 56.21875 -10.90625 C 59.96875 -15.300781 63.601562 -19.769531 67.125 -24.3125 C 67.332031 -24.644531 67.539062 -24.953125 67.75 -25.234375 Z M 84.84375 -31.015625 C 87.539062 -37.171875 90.328125 -43.300781 93.203125 -49.40625 C 93.328125 -49.738281 93.757812 -50.703125 94.5 -52.296875 C 95.238281 -53.890625 96.085938 -55.742188 97.046875 -57.859375 C 98.003906 -59.972656 98.882812 -61.972656 99.6875 -63.859375 C 100.488281 -65.742188 101.050781 -67.15625 101.375 -68.09375 C 101.695312 -69.03125 101.597656 -69.117188 101.078125 -68.359375 C 100.953125 -68.191406 100.851562 -68.023438 100.78125 -67.859375 C 100.332031 -67.203125 99.898438 -66.546875 99.484375 -65.890625 C 96.078125 -60.609375 92.648438 -55.328125 89.203125 -50.046875 C 85.753906 -44.773438 82.1875 -39.578125 78.5 -34.453125 C 78.144531 -33.972656 77.78125 -33.460938 77.40625 -32.921875 C 76.695312 -31.953125 76 -30.972656 75.3125 -29.984375 C 75.03125 -29.578125 74.953125 -29.238281 75.078125 -28.96875 C 75.203125 -28.695312 75.488281 -28.5625 75.9375 -28.5625 C 76.675781 -28.5625 77.410156 -28.582031 78.140625 -28.625 C 79.296875 -28.707031 80.441406 -28.75 81.578125 -28.75 C 82.453125 -28.71875 83.128906 -28.90625 83.609375 -29.3125 C 84.097656 -29.726562 84.507812 -30.296875 84.84375 -31.015625 Z M 84.84375 -31.015625 "/></g></g></g><g fill="rgb(34.899902%, 21.569824%, 10.978699%)" fill-opacity="1"><g transform="translate(162.776336, 208.144483)"><g><path d="M 59.21875 -22.71875 C 59.425781 -22.238281 59.546875 -21.726562 59.578125 -21.1875 C 59.691406 -18.96875 59.484375 -16.503906 58.953125 -13.796875 C 58.421875 -11.097656 57.507812 -8.4375 56.21875 -5.8125 C 54.9375 -3.1875 53.25 -0.941406 51.15625 0.921875 C 49.0625 2.785156 46.539062 3.941406 43.59375 4.390625 C 39.40625 5.003906 35.820312 4.304688 32.84375 2.296875 C 31.03125 1.023438 29.578125 -0.550781 28.484375 -2.4375 C 28.066406 -3.082031 27.65625 -3.757812 27.25 -4.46875 C 27.039062 -4.789062 26.804688 -5.132812 26.546875 -5.5 C 25.523438 -5.019531 24.601562 -4.390625 23.78125 -3.609375 C 23.5 -3.359375 23.21875 -3.132812 22.9375 -2.9375 C 22.882812 -2.894531 22.820312 -2.828125 22.75 -2.734375 C 20.488281 -0.890625 18.113281 0.800781 15.625 2.34375 C 12.957031 3.90625 10.289062 4.601562 7.625 4.4375 C 5.332031 4.269531 3.710938 3.453125 2.765625 1.984375 C 1.816406 0.515625 1.710938 -1.382812 2.453125 -3.71875 C 2.898438 -5.15625 3.539062 -6.507812 4.375 -7.78125 C 5.21875 -9.0625 6.15625 -10.296875 7.1875 -11.484375 C 8.707031 -13.234375 10.316406 -14.898438 12.015625 -16.484375 C 13.710938 -18.066406 15.460938 -19.613281 17.265625 -21.125 C 18.835938 -22.425781 20.441406 -23.691406 22.078125 -24.921875 C 23.265625 -25.796875 23.898438 -26.867188 23.984375 -28.140625 C 24.390625 -32.242188 25.273438 -36.378906 26.640625 -40.546875 C 27.523438 -43.421875 28.851562 -46.207031 30.625 -48.90625 C 33.644531 -53.46875 37.578125 -55.617188 42.421875 -55.359375 C 44.847656 -55.328125 46.898438 -54.65625 48.578125 -53.34375 C 51.578125 -50.789062 51.78125 -47.363281 49.1875 -43.0625 C 47.988281 -41.3125 46.570312 -39.671875 44.9375 -38.140625 C 43.394531 -36.671875 41.78125 -35.28125 40.09375 -33.96875 C 38.40625 -32.65625 36.703125 -31.382812 34.984375 -30.15625 C 34.785156 -30.007812 34.582031 -29.867188 34.375 -29.734375 C 32.8125 -28.578125 31.273438 -27.429688 29.765625 -26.296875 C 29.109375 -25.890625 28.753906 -25.378906 28.703125 -24.765625 C 28.660156 -24.222656 28.640625 -23.691406 28.640625 -23.171875 C 28.609375 -21.523438 28.640625 -19.910156 28.734375 -18.328125 C 28.835938 -16.742188 29.132812 -15.238281 29.625 -13.8125 C 29.675781 -13.769531 29.738281 -13.726562 29.8125 -13.6875 C 29.851562 -13.65625 29.875 -13.640625 29.875 -13.640625 C 30.820312 -14.117188 31.660156 -14.707031 32.390625 -15.40625 C 32.648438 -15.601562 32.898438 -15.832031 33.140625 -16.09375 C 38.378906 -20.300781 43.742188 -24.316406 49.234375 -28.140625 C 50.023438 -28.660156 50.828125 -29.171875 51.640625 -29.671875 C 52.460938 -30.203125 53.300781 -30.410156 54.15625 -30.296875 C 54.664062 -30.253906 54.992188 -30.046875 55.140625 -29.671875 C 55.234375 -29.378906 55.195312 -29.144531 55.03125 -28.96875 C 54.863281 -28.789062 54.675781 -28.617188 54.46875 -28.453125 C 53.976562 -28.035156 53.484375 -27.625 52.984375 -27.21875 C 52.503906 -26.882812 52.039062 -26.515625 51.59375 -26.109375 C 50.5625 -25.316406 49.554688 -24.515625 48.578125 -23.703125 C 43.171875 -19.359375 37.773438 -15 32.390625 -10.625 C 31.566406 -9.96875 31.09375 -9.453125 30.96875 -9.078125 C 30.851562 -8.710938 30.945312 -8.203125 31.25 -7.546875 C 32.132812 -5.367188 33.296875 -3.421875 34.734375 -1.703125 C 35.890625 -0.347656 37.328125 0.675781 39.046875 1.375 C 41.429688 2.1875 43.582031 2.179688 45.5 1.359375 C 47.414062 0.546875 49.070312 -0.796875 50.46875 -2.671875 C 51.863281 -4.554688 52.976562 -6.675781 53.8125 -9.03125 C 54.65625 -11.394531 55.179688 -13.691406 55.390625 -15.921875 C 55.597656 -18.160156 55.457031 -20.035156 54.96875 -21.546875 C 54.96875 -21.753906 54.953125 -21.941406 54.921875 -22.109375 C 54.828125 -22.347656 54.78125 -22.597656 54.78125 -22.859375 C 54.78125 -23.140625 54.867188 -23.375 55.046875 -23.5625 C 55.234375 -23.75 55.46875 -23.878906 55.75 -23.953125 C 57.519531 -24.453125 58.675781 -24.039062 59.21875 -22.71875 Z M 34.015625 -46.328125 C 33.234375 -44.929688 32.582031 -43.523438 32.0625 -42.109375 C 31.550781 -40.691406 31.09375 -39.269531 30.6875 -37.84375 C 30.550781 -37.320312 30.429688 -36.769531 30.328125 -36.1875 C 29.984375 -34.75 29.691406 -33.296875 29.453125 -31.828125 C 29.359375 -31.492188 29.4375 -31.273438 29.6875 -31.171875 C 29.945312 -31.066406 30.234375 -31.117188 30.546875 -31.328125 C 32.523438 -32.691406 34.453125 -34.097656 36.328125 -35.546875 C 38.210938 -37.003906 40.019531 -38.585938 41.75 -40.296875 C 43.019531 -41.585938 44.0625 -42.96875 44.875 -44.4375 C 46.726562 -48.289062 46.050781 -50.9375 42.84375 -52.375 C 41.289062 -53.019531 39.675781 -52.664062 38 -51.3125 C 37.125 -50.625 36.367188 -49.859375 35.734375 -49.015625 C 35.109375 -48.179688 34.535156 -47.285156 34.015625 -46.328125 Z M 24.09375 -8.578125 C 24.90625 -9.285156 25.175781 -10.050781 24.90625 -10.875 C 24.15625 -13.78125 23.722656 -16.828125 23.609375 -20.015625 C 23.609375 -20.179688 23.5625 -20.382812 23.46875 -20.625 C 23.394531 -20.789062 23.34375 -20.992188 23.3125 -21.234375 C 20.8125 -19.359375 18.503906 -17.425781 16.390625 -15.4375 C 14.273438 -13.457031 12.316406 -11.359375 10.515625 -9.140625 C 8.835938 -7.085938 7.707031 -4.914062 7.125 -2.625 C 6.84375 -1.394531 6.992188 -0.320312 7.578125 0.59375 C 8.222656 1.726562 9.347656 1.90625 10.953125 1.125 C 11.804688 0.769531 12.628906 0.320312 13.421875 -0.21875 C 16.492188 -2.34375 19.460938 -4.632812 22.328125 -7.09375 C 22.890625 -7.601562 23.476562 -8.097656 24.09375 -8.578125 Z M 24.09375 -8.578125 "/></g></g></g><g fill="rgb(34.899902%, 21.569824%, 10.978699%)" fill-opacity="1"><g transform="translate(221.180059, 208.144483)"><g><path d="M 104.21875 -43.515625 C 104.007812 -43.472656 103.78125 -43.46875 103.53125 -43.5 C 103.289062 -43.539062 103.070312 -43.644531 102.875 -43.8125 C 102.625 -44.0625 102.519531 -44.285156 102.5625 -44.484375 C 102.601562 -44.691406 102.6875 -44.878906 102.8125 -45.046875 C 104.769531 -48.191406 106.46875 -51.488281 107.90625 -54.9375 C 108.8125 -57.0625 109.613281 -59.253906 110.3125 -61.515625 C 110.75 -62.910156 110.785156 -64.410156 110.421875 -66.015625 C 110.066406 -67.722656 109.039062 -68.929688 107.34375 -69.640625 C 106.039062 -70.128906 104.707031 -70.390625 103.34375 -70.421875 C 103.101562 -70.421875 102.863281 -70.421875 102.625 -70.421875 C 99.75 -70.304688 96.960938 -69.898438 94.265625 -69.203125 C 89.585938 -68.054688 85.0625 -66.640625 80.6875 -64.953125 C 76.320312 -63.273438 72.050781 -61.4375 67.875 -59.4375 C 49.5625 -50.53125 33.171875 -39.28125 18.703125 -25.6875 C 15.046875 -22.40625 11.847656 -18.734375 9.109375 -14.671875 C 8.160156 -13.234375 7.320312 -11.710938 6.59375 -10.109375 C 6.1875 -9.222656 5.898438 -8.265625 5.734375 -7.234375 C 5.117188 -3.921875 6.550781 -1.441406 10.03125 0.203125 C 12.976562 1.554688 15.96875 2.316406 19 2.484375 C 21.382812 2.691406 23.707031 2.796875 25.96875 2.796875 C 27.03125 2.796875 28.050781 2.75 29.03125 2.65625 C 43.382812 2.507812 56.929688 0.644531 69.671875 -2.9375 C 69.878906 -3.007812 70.082031 -3.066406 70.28125 -3.109375 C 71.144531 -3.398438 72.050781 -3.628906 73 -3.796875 C 73.238281 -3.835938 73.640625 -3.875 74.203125 -3.90625 C 74.773438 -3.945312 75.316406 -3.914062 75.828125 -3.8125 C 76.335938 -3.707031 76.660156 -3.472656 76.796875 -3.109375 C 76.835938 -2.898438 76.804688 -2.742188 76.703125 -2.640625 C 76.597656 -2.535156 76.441406 -2.46875 76.234375 -2.4375 C 75.453125 -2.226562 74.679688 -2.019531 73.921875 -1.8125 C 71.609375 -1.195312 69.304688 -0.601562 67.015625 -0.03125 C 54.109375 3.289062 40.703125 4.90625 26.796875 4.8125 C 23.929688 4.8125 21.0625 4.753906 18.1875 4.640625 C 14.96875 4.503906 11.738281 3.820312 8.5 2.59375 C 2.050781 0.101562 -0.203125 -4.007812 1.734375 -9.75 C 2.515625 -12.039062 3.625 -14.15625 5.0625 -16.09375 C 7.050781 -18.96875 9.253906 -21.632812 11.671875 -24.09375 C 14.097656 -26.550781 16.625 -28.925781 19.25 -31.21875 C 30.96875 -41.539062 43.863281 -50.410156 57.9375 -57.828125 C 62.238281 -60.078125 66.617188 -62.175781 71.078125 -64.125 C 75.546875 -66.070312 80.15625 -67.789062 84.90625 -69.28125 C 88.882812 -70.539062 92.984375 -71.5 97.203125 -72.15625 C 98.890625 -72.394531 100.570312 -72.515625 102.25 -72.515625 C 103.351562 -72.515625 104.460938 -72.476562 105.578125 -72.40625 C 106.878906 -72.28125 108.1875 -72.007812 109.5 -71.59375 C 113.03125 -70.332031 114.835938 -67.992188 114.921875 -64.578125 C 114.921875 -63.078125 114.710938 -61.625 114.296875 -60.21875 C 113.441406 -57.519531 112.390625 -54.921875 111.140625 -52.421875 C 109.890625 -49.929688 108.550781 -47.492188 107.125 -45.109375 C 106.707031 -44.285156 106.046875 -43.753906 105.140625 -43.515625 C 104.859375 -43.472656 104.597656 -43.472656 104.359375 -43.515625 Z M 104.21875 -43.515625 "/></g></g></g></svg>